<svg xmlns="http://www.w3.org/2000/svg" viewBox="0 0 100 100">
  <!-- Calculator body -->
  <rect x="15" y="10" width="70" height="80" rx="8" fill="#2c3e50" stroke="#34495e" stroke-width="2"/>

  <!-- Display screen -->
  <rect x="22" y="18" width="56" height="18" rx="3" fill="#16a085" opacity="0.9"/>

  <!-- Display text (showing "42") -->
  <text x="72" y="31" font-family="Arial, sans-serif" font-size="12" fill="#ecf0f1" text-anchor="end" font-weight="bold">42</text>

  <!-- Button grid -->
  <!-- Row 1 -->
  <rect x="22" y="42" width="12" height="10" rx="2" fill="#e74c3c"/>
  <rect x="37" y="42" width="12" height="10" rx="2" fill="#95a5a6"/>
  <rect x="52" y="42" width="12" height="10" rx="2" fill="#f39c12"/>
  <rect x="67" y="42" width="12" height="10" rx="2" fill="#f39c12"/>

  <!-- Row 2 -->
  <rect x="22" y="55" width="12" height="10" rx="2" fill="#ecf0f1"/>
  <rect x="37" y="55" width="12" height="10" rx="2" fill="#ecf0f1"/>
  <rect x="52" y="55" width="12" height="10" rx="2" fill="#ecf0f1"/>
  <rect x="67" y="55" width="12" height="10" rx="2" fill="#f39c12"/>

  <!-- Row 3 -->
  <rect x="22" y="68" width="12" height="10" rx="2" fill="#ecf0f1"/>
  <rect x="37" y="68" width="12" height="10" rx="2" fill="#ecf0f1"/>
  <rect x="52" y="68" width="12" height="10" rx="2" fill="#ecf0f1"/>
  <rect x="67" y="68" width="12" height="10" rx="2" fill="#f39c12"/>

  <!-- Row 4 -->
  <rect x="22" y="81" width="27" height="6" rx="2" fill="#ecf0f1"/>
  <rect x="52" y="81" width="12" height="6" rx="2" fill="#ecf0f1"/>
  <rect x="67" y="81" width="12" height="6" rx="2" fill="#27ae60"/>
</svg>
